<svg xmlns="http://www.w3.org/2000/svg" viewBox="0 0 32 32"><defs><style>.cls-1{fill:#231f20;}</style></defs><g id="dress"><path class="cls-1" d="M25.76,28l-3-11,2-7a3.3,3.3,0,0,0-.35-2.67A4,4,0,0,0,24,6.86v-4H22V5.4A5.36,5.36,0,0,0,19.31,5,5.07,5.07,0,0,0,16,6.78,5.07,5.07,0,0,0,12.69,5,5.36,5.36,0,0,0,10,5.4V3A1,1,0,0,0,8,3V6.86a3.45,3.45,0,0,0-.39.53,3.3,3.3,0,0,0-.35,2.67l2,7L8,21.74a1,1,0,0,0,1.93.52L11.05,18h7a1,1,0,0,0,0-2H11L9.19,9.51A1.33,1.33,0,0,1,9.3,8.45,3.36,3.36,0,0,1,12.45,7,3,3,0,0,1,15,9.21a1,1,0,0,0,2,0A3,3,0,0,1,19.55,7,3.37,3.37,0,0,1,22.7,8.45a1.33,1.33,0,0,1,.11,1.06l-2.06,7.22a1,1,0,0,0,0,.53L23.69,28H8.31l.75-2.74a1,1,0,0,0-1.93-.52L6.24,28a1.55,1.55,0,0,0,.26,1.38A1.6,1.6,0,0,0,7.76,30H24.24a1.6,1.6,0,0,0,1.26-.62A1.55,1.55,0,0,0,25.76,28Z"/></g></svg>